<?xml version="1.0" standalone="no"?>
<!DOCTYPE svg PUBLIC "-//W3C//DTD SVG 20010904//EN"
 "http://www.w3.org/TR/2001/REC-SVG-20010904/DTD/svg10.dtd">
<svg version="1.0" xmlns="http://www.w3.org/2000/svg"
 width="1188.000000pt" height="1280.000000pt" viewBox="0 0 1188.000000 1280.000000"
 preserveAspectRatio="xMidYMid meet">
<g transform="translate(0.000000,1280.000000) scale(0.100000,-0.100000)"
fill="#000000" stroke="none">
<path d="M2212 12658 c-68 -170 -182 -593 -222 -823 -101 -583 -71 -1083 91
-1520 54 -144 189 -424 278 -575 39 -65 71 -124 71 -131 0 -7 -12 -9 -37 -5
-21 3 -101 8 -178 12 -290 14 -403 -23 -548 -176 l-84 -89 -139 6 c-223 9
-638 -37 -872 -97 -254 -64 -461 -168 -545 -272 -29 -37 -30 -38 -18 -94 6
-32 11 -79 11 -106 0 -65 39 -144 104 -212 128 -132 273 -197 766 -341 196
-58 399 -109 406 -103 2 2 -36 21 -84 43 -276 122 -503 254 -597 349 -79 79
-99 124 -100 221 0 104 28 166 120 263 97 104 109 109 271 128 168 19 528 24
544 8 9 -9 -1 -35 -35 -104 -52 -103 -112 -273 -122 -345 l-6 -48 84 87 c46
48 113 110 149 137 93 71 251 146 347 166 l81 17 71 -31 c92 -41 261 -141 261
-154 0 -6 -18 -41 -40 -78 -124 -208 -197 -507 -172 -698 20 -147 77 -291 146
-368 l36 -40 -7 85 c-20 217 4 462 63 640 46 139 50 143 200 183 l84 22 61
-60 c173 -170 510 -618 638 -850 l22 -40 -264 -820 c-342 -1060 -363 -1129
-432 -1468 -76 -368 -108 -676 -108 -1037 0 -406 50 -844 138 -1190 166 -661
486 -1212 986 -1695 663 -641 1367 -1052 2204 -1285 223 -62 539 -118 785
-140 69 -6 164 -15 211 -20 126 -15 239 -12 489 10 520 45 871 121 1322 285
351 128 791 344 1098 540 36 23 73 44 82 48 24 9 39 -15 32 -52 -9 -45 2 -38
32 20 17 34 29 48 36 41 12 -12 28 -118 37 -247 l6 -99 59 137 c33 77 63 136
70 134 6 -2 12 -18 14 -35 5 -50 20 -28 28 39 4 32 11 62 16 65 6 4 70 -54
144 -127 126 -125 134 -132 134 -104 0 70 -31 346 -46 408 -9 37 -14 71 -10
74 10 10 74 -29 116 -72 44 -45 83 -134 78 -179 -4 -37 18 -45 51 -19 35 28
37 89 7 228 -26 123 -31 165 -19 165 4 0 38 -18 75 -41 83 -49 154 -74 235
-84 60 -7 277 10 316 24 18 7 15 9 -18 15 -21 4 -57 17 -80 28 -52 27 -295
228 -295 245 0 17 1 17 89 -9 117 -34 308 -32 456 6 155 39 297 109 377 187
35 33 54 58 43 54 -184 -60 -402 -42 -593 50 -51 25 -91 49 -88 53 3 5 65 12
138 15 137 6 216 23 350 73 80 30 95 45 35 33 -78 -15 -145 -10 -190 13 -30
16 -58 22 -99 21 -32 -1 -58 3 -58 7 0 17 102 99 130 105 15 3 47 1 69 -6 34
-10 44 -9 66 5 25 17 33 36 15 36 -6 0 -66 9 -133 20 -67 12 -142 24 -167 28
-50 9 -50 10 -24 84 20 59 14 78 -26 78 -38 0 -39 17 -3 73 37 59 173 333 222
449 287 679 424 1462 408 2341 -6 304 -19 488 -52 692 -107 670 -332 1203
-706 1676 -93 118 -371 399 -529 535 -557 480 -1097 794 -1648 958 -337 101
-714 146 -1216 146 -692 0 -1271 -58 -2101 -210 -551 -101 -917 -148 -1216
-157 -187 -6 -201 -5 -320 21 -268 59 -269 60 -315 182 -27 74 -31 155 -13
325 22 226 80 428 179 635 104 216 307 491 387 525 66 28 176 52 243 52 89 1
140 -25 251 -131 83 -78 197 -229 214 -281 13 -43 22 -18 28 80 11 207 -24
397 -86 462 -59 63 -226 96 -401 78 -138 -14 -372 -65 -464 -102 -188 -75
-349 -225 -445 -416 -44 -86 -51 -80 -44 38 8 124 27 242 67 399 40 158 54
195 249 687 95 238 171 437 169 443 -4 14 -217 -104 -373 -207 -98 -65 -156
-113 -235 -194 -112 -114 -133 -129 -177 -129 -54 1 -80 38 -87 127 -6 73 -12
90 -34 95 -49 12 -112 -33 -175 -129 -75 -114 -82 -146 -81 -388 0 -174 5
-241 28 -390 40 -270 151 -808 202 -977 3 -11 0 -18 -9 -18 -31 0 -303 526
-415 800 -28 69 -72 170 -98 225 -371 793 -418 966 -418 1540 0 165 6 354 12
419 6 66 10 121 8 123 -2 2 -13 -20 -24 -49z"/>
</g>
</svg>
